<svg width="22" height="20" viewBox="0 0 22 20" fill="none" xmlns="http://www.w3.org/2000/svg">
<path d="M9.89028 0.859336C10.1901 -0.0609409 11.492 -0.06094 11.7919 0.859337L13.543 6.23373C13.6771 6.64536 14.0609 6.92394 14.4938 6.92394H20.1545C21.1239 6.92394 21.5263 8.16497 20.7413 8.73373L16.1664 12.0484C15.8149 12.303 15.6678 12.7553 15.8023 13.168L17.5509 18.5346C17.8509 19.4554 16.7976 20.2224 16.0133 19.6542L11.4278 16.3318C11.0778 16.0782 10.6044 16.0782 10.2544 16.3318L5.66881 19.6542C4.88456 20.2224 3.83126 19.4554 4.13129 18.5346L5.87986 13.168C6.01431 12.7553 5.86723 12.303 5.51577 12.0484L0.940902 8.73373C0.155895 8.16497 0.558226 6.92394 1.52762 6.92394H7.18838C7.6213 6.92394 8.00506 6.64536 8.13918 6.23373L9.89028 0.859336Z" fill="#070707"/>
</svg>
